<?xml version="1.0" encoding="UTF-8"?> <svg xmlns="http://www.w3.org/2000/svg" xmlns:xlink="http://www.w3.org/1999/xlink" id="_Слой_2" data-name="Слой 2" viewBox="0 0 283.46 302.16"><defs><style> .cls-1 { fill: url(#linear-gradient); stroke-width: 0px; } </style><linearGradient id="linear-gradient" x1="141.73" y1="302.16" x2="141.73" y2="0" gradientUnits="userSpaceOnUse"><stop offset="0" stop-color="#5c2483"></stop><stop offset=".18" stop-color="#5f2885"></stop><stop offset=".38" stop-color="#6b348c"></stop><stop offset=".57" stop-color="#7f4998"></stop><stop offset=".77" stop-color="#9b66a8"></stop><stop offset=".96" stop-color="#be8bbd"></stop><stop offset="1" stop-color="#c693c2"></stop></linearGradient></defs><g id="Layer_1" data-name="Layer 1"><path class="cls-1" d="M282.99,0l-1.49.04c-.06,4.82,0,31.14-13.74,53.94-10.48,17.39-28.82,35.09-56.73,53.81-28.06,18.95-46.43,36.99-57.56,54.54-5.92,9.56-9.7,18.9-11.74,28.09-2.04-9.19-5.83-18.53-11.74-28.09-11.13-17.55-29.51-35.59-57.56-54.54-27.91-18.72-46.25-36.42-56.73-53.81C1.96,31.18,2.02,4.86,1.96.04l-1.49-.04C.02,5.26,0,85.69,0,90.92c0,16.16,1.42,35.74,12.12,52.6,10.94,17.53,29.3,35.68,57.35,54.63,27.91,18.72,45.94,36.51,56.92,53.82,10.79,17.3,13.79,33.85,13.39,50.19h3.91c-.77-16.34,2.6-32.89,13.39-50.19,10.98-17.31,29.01-35.1,56.92-53.82,28.06-18.95,46.41-37.1,57.35-54.63,10.69-16.86,12.12-36.44,12.12-52.6,0-5.23-.02-85.65-.47-90.92ZM129.99,251.28c-11.13-17.55-29.51-35.59-57.56-54.54-27.91-18.72-45.92-36.62-56.73-53.81-5.74-9.06-8.96-18.9-10.54-28.55,1.76,4.89,4.04,9.71,6.96,14.32,10.94,17.53,29.3,35.68,57.35,54.63,27.91,18.72,45.94,36.51,56.92,53.82,6.87,11.02,10.81,21.75,12.46,32.31-2.15-5.98-5.06-12.04-8.86-18.18ZM129.99,236.45c-11.13-17.55-29.51-35.59-57.56-54.54-27.91-18.72-45.92-36.62-56.73-53.81-5.74-9.06-8.96-18.9-10.54-28.55,1.76,4.89,4.04,9.71,6.96,14.32,10.94,17.53,29.3,35.68,57.35,54.63,27.91,18.72,45.94,36.51,56.92,53.82,6.87,11.02,10.81,21.75,12.46,32.31-2.15-5.98-5.06-12.04-8.86-18.18ZM129.99,221.63c-11.13-17.55-29.51-35.59-57.56-54.54-27.91-18.72-45.92-36.62-56.73-53.81-5.74-9.06-8.96-18.9-10.54-28.55,1.76,4.89,4.04,9.71,6.96,14.32,10.94,17.53,29.3,35.68,57.35,54.63,27.91,18.72,45.94,36.51,56.92,53.82,6.87,11.02,10.81,21.75,12.46,32.31-2.15-5.98-5.06-12.04-8.86-18.18ZM129.99,206.8c-11.13-17.55-29.51-35.59-57.56-54.54-27.91-18.72-45.92-36.62-56.73-53.81-5.74-9.06-8.96-18.9-10.54-28.55,1.76,4.89,4.04,9.71,6.96,14.32,10.94,17.53,29.3,35.68,57.35,54.63,27.91,18.72,45.94,36.51,56.92,53.82,6.87,11.02,10.81,21.75,12.46,32.31-2.15-5.98-5.06-12.04-8.86-18.18ZM129.99,191.98c-11.13-17.55-29.51-35.59-57.56-54.54-27.91-18.72-45.92-36.62-56.73-53.81-5.74-9.06-8.96-18.9-10.54-28.55,1.76,4.89,4.04,9.71,6.96,14.32,10.94,17.53,29.3,35.68,57.35,54.63,27.91,18.72,45.94,36.51,56.92,53.82,6.87,11.02,10.81,21.75,12.46,32.31-2.15-5.98-5.06-12.04-8.86-18.18ZM129.99,177.15c-11.13-17.55-29.51-35.59-57.56-54.54-27.91-18.72-45.92-36.62-56.73-53.81-5.74-9.06-8.96-18.9-10.54-28.55,1.76,4.89,4.04,9.71,6.96,14.32,10.94,17.53,29.3,35.68,57.35,54.63,27.91,18.72,45.94,36.51,56.92,53.82,6.87,11.02,10.81,21.75,12.46,32.31-2.15-5.98-5.06-12.04-8.86-18.18ZM157.08,163.03c10.98-17.31,29.01-35.1,56.92-53.82,28.06-18.95,46.41-37.1,57.35-54.63,2.92-4.61,5.2-9.43,6.96-14.32-1.58,9.66-4.8,19.5-10.54,28.55-10.81,17.19-28.82,35.09-56.73,53.81-28.06,18.95-46.43,36.99-57.56,54.54-3.8,6.14-6.71,12.2-8.86,18.18,1.65-10.55,5.59-21.29,12.46-32.31ZM157.08,177.85c10.98-17.31,29.01-35.1,56.92-53.82,28.06-18.95,46.41-37.1,57.35-54.63,2.92-4.61,5.2-9.43,6.96-14.32-1.58,9.66-4.8,19.5-10.54,28.55-10.81,17.19-28.82,35.09-56.73,53.81-28.06,18.95-46.43,36.99-57.56,54.54-3.8,6.14-6.71,12.2-8.86,18.18,1.65-10.55,5.59-21.29,12.46-32.31ZM267.77,142.93c-10.81,17.19-28.82,35.09-56.73,53.81-28.06,18.95-46.43,36.99-57.56,54.54-3.8,6.14-6.71,12.2-8.86,18.18,1.65-10.55,5.59-21.29,12.46-32.31,10.98-17.31,29.01-35.1,56.92-53.82,28.06-18.95,46.41-37.1,57.35-54.63,2.92-4.61,5.2-9.43,6.96-14.32-1.58,9.66-4.8,19.5-10.54,28.55ZM267.77,128.11c-10.81,17.19-28.82,35.09-56.73,53.81-28.06,18.95-46.43,36.99-57.56,54.54-3.8,6.14-6.71,12.2-8.86,18.18,1.65-10.55,5.59-21.29,12.46-32.31,10.98-17.31,29.01-35.1,56.92-53.82,28.06-18.95,46.41-37.1,57.35-54.63,2.92-4.61,5.2-9.43,6.96-14.32-1.58,9.66-4.8,19.5-10.54,28.55ZM267.77,113.28c-10.81,17.19-28.82,35.09-56.73,53.81-28.06,18.95-46.43,36.99-57.56,54.54-3.8,6.14-6.71,12.2-8.86,18.18,1.65-10.55,5.59-21.29,12.46-32.31,10.98-17.31,29.01-35.1,56.92-53.82,28.06-18.95,46.41-37.1,57.35-54.63,2.92-4.61,5.2-9.43,6.96-14.32-1.58,9.66-4.8,19.5-10.54,28.55ZM267.77,98.45c-10.81,17.19-28.82,35.09-56.73,53.81-28.06,18.95-46.43,36.99-57.56,54.54-3.8,6.14-6.71,12.2-8.86,18.18,1.65-10.55,5.59-21.29,12.46-32.31,10.98-17.31,29.01-35.1,56.92-53.82,28.06-18.95,46.41-37.1,57.35-54.63,2.92-4.61,5.2-9.43,6.96-14.32-1.58,9.66-4.8,19.5-10.54,28.55Z"></path></g></svg> 