<?xml version="1.0" encoding="UTF-8"?> <svg xmlns="http://www.w3.org/2000/svg" width="390" height="325" viewBox="0 0 390 325" fill="none"><path d="M160 0H20C8.972 0 0 8.972 0 20V150C0 161.028 8.972 170 20 170H102.865C93.493 215.993 52.407 250 5 250C3.67392 250 2.40215 250.527 1.46447 251.464C0.526784 252.402 0 253.674 0 255V320C0 321.326 0.526784 322.598 1.46447 323.536C2.40215 324.473 3.67392 325 5 325C101.495 325 180 246.495 180 150V20C180 8.972 171.028 0 160 0ZM170 150C170 239.31 98.679 312.274 10 314.926V259.887C34.8501 258.763 58.5796 249.224 77.293 232.835C97.085 215.5 110.033 191.661 113.754 165.71C113.856 165.001 113.805 164.278 113.603 163.59C113.401 162.902 113.054 162.266 112.584 161.724C112.115 161.183 111.534 160.748 110.882 160.451C110.23 160.153 109.522 160 108.805 160H20C14.486 160 10 155.514 10 150V20C10 14.486 14.486 10 20 10H160C165.514 10 170 14.486 170 20V150ZM370 0H230C218.972 0 210 8.972 210 20V150C210 161.028 218.972 170 230 170H312.869C303.497 215.993 262.41 250 215 250C213.674 250 212.402 250.527 211.464 251.464C210.527 252.402 210 253.674 210 255V320C210 321.326 210.527 322.598 211.464 323.536C212.402 324.473 213.674 325 215 325C311.495 325 390 246.495 390 150V20C390 8.972 381.029 0 370 0ZM380 150C380 239.31 308.679 312.274 220 314.926V259.887C244.851 258.764 268.581 249.224 287.295 232.835C307.088 215.5 320.037 191.661 323.758 165.71C323.86 165.001 323.808 164.278 323.606 163.59C323.404 162.903 323.056 162.267 322.587 161.725C322.118 161.184 321.537 160.749 320.886 160.452C320.234 160.154 319.526 160 318.809 160H230C224.486 160 220 155.514 220 150V20C220 14.486 224.486 10 230 10H370C375.514 10 380 14.486 380 20V150Z" fill="white"></path></svg> 